<svg xmlns="http://www.w3.org/2000/svg" viewBox="0 0 160 90"><rect width="160" height="90" fill="white"/><g fill="none" stroke="#27313d" stroke-linecap="round" stroke-linejoin="round"><line x1="8.0" y1="12.0" x2="152.0" y2="12.0" stroke-width="4.0"/><line x1="8.0" y1="78.0" x2="152.0" y2="78.0" stroke-width="4.0"/><line x1="10.0" y1="10.0" x2="10.0" y2="80.0" stroke-width="4.0"/><line x1="150.0" y1="10.0" x2="150.0" y2="80.0" stroke-width="4.0"/><path d="M21.7,75 C13.7,62 29.7,55 21.7,45 C13.7,34 29.7,25 21.7,15" stroke-width="1.6"/><path d="M45.0,75 C37.0,62 53.0,55 45.0,45 C37.0,34 53.0,25 45.0,15" stroke-width="1.6"/><path d="M68.3,75 C60.3,62 76.3,55 68.3,45 C60.3,34 76.3,25 68.3,15" stroke-width="1.6"/><path d="M91.7,75 C83.7,62 99.7,55 91.7,45 C83.7,34 99.7,25 91.7,15" stroke-width="1.6"/><path d="M115.0,75 C107.0,62 123.0,55 115.0,45 C107.0,34 123.0,25 115.0,15" stroke-width="1.6"/><path d="M138.3,75 C130.3,62 146.3,55 138.3,45 C130.3,34 146.3,25 138.3,15" stroke-width="1.6"/></g></svg>